<?xml version="1.0" encoding="UTF-8"?><svg xmlns="http://www.w3.org/2000/svg" viewBox="0 0 300.05 142.36" fill="#475569"><path d="m11.93,75.2c.73-8.14,7.78-14.26,15.96-14.26h1.54c1.6,0,2.9-1.3,2.9-2.9h0c0-1.63-1.34-2.94-2.97-2.9-6.97.19-24.06,2.24-28.08,17.56-5.09,19.37,5.4,26.3,27.92,35.41s10.86,28.99-9.28,28.99h-.53c-1.45,0-2.62,1.18-2.62,2.62h0c0,1.45,1.18,2.62,2.62,2.62h.25c1.96,0,32.96-.04,33.58-26.36S10,96.71,11.93,75.2Z"/><path d="m61.25,25.01c-11.19,4.38-9.71-3.81-9.71-11.71v-7.36c0-3.28-2.66-5.94-5.94-5.94s-5.94,2.66-5.94,5.94v54.15c0,19.36,8.32,36.38,32.14,36.38s32.62-20.98,32.62-42.09-17.73-39.11-43.17-29.37Zm10,66.28c-16.34,0-20.74-14.19-20.74-32.68,0-13.09,5.49-30.28,21.53-30.28s19.94,18.09,19.94,30.28-4.4,32.68-20.74,32.68Z"/><path d="m114.28,71.8c0-19.48,17.43-20.96,22.77-20.96.85,0,1.54.68,1.54,1.53h0c0,.8-.63,1.48-1.43,1.52-11.44.67-15.65,9.42-15.65,17.9v1c0,8.48,5.12,17.22,16.61,17.9.82.05,1.46.74,1.46,1.56h0c0,.83-.65,1.53-1.48,1.57-5.41.27-23.83-.34-23.83-21.03v-1Z"/><path d="m155.46,75.1h7.76c12.52,0,16-7.19,16-12.65s-3.6-11.61-14.76-11.61-20.34,9.01-20.34,21.51c0,21.1,19.04,21.88,24.84,21.63.92-.04,1.65-.79,1.65-1.71s-.72-1.66-1.63-1.71c-11.7-.56-15.39-7.16-16.54-11.55-.52-1.98.98-3.91,3.02-3.91Zm7.98-21.38c5.93,0,9.92,4.35,9.92,8.63s-3.7,8.76-9.92,8.76-9.86-2.65-9.86-8.17,4.4-9.22,9.86-9.22Z"/><path d="m253.99,75.1h7.76c12.52,0,16-7.19,16-12.65s-3.6-11.61-14.76-11.61-20.34,9.01-20.34,21.51c0,21.1,19.04,21.88,24.84,21.63.92-.04,1.65-.79,1.65-1.71s-.72-1.66-1.63-1.71c-11.7-.56-15.39-7.16-16.54-11.55-.52-1.98.98-3.91,3.02-3.91Zm7.98-21.38c5.93,0,9.92,4.35,9.92,8.63s-3.7,8.76-9.92,8.76-9.86-2.65-9.86-8.17,4.4-9.22,9.86-9.22Z"/><path d="m187.15,75.92c-1.21-.01-2.18-.99-2.18-2.2v-2.2c0-14.04,5.92-20.68,16.03-20.68,11.85,0,14.36,10.18,14.36,13.82v25.94c0,1.89-1.53,3.42-3.42,3.42h0c-1.89,0-3.42-1.53-3.42-3.42v-25.56c0-5.7-3.72-9.8-8.89-9.8-4.86,0-10.26,3.58-10.26,14.5v3.98c0,1.22-1,2.21-2.22,2.2h0Z"/><path d="m284.42,90.6c0,1.89,1.53,3.42,3.42,3.42h0c1.89,0,3.42-1.53,3.42-3.42l-.55-22.2c0-10.44,4.1-14.67,7.9-14.67h0c.8,0,1.44-.65,1.44-1.44h0c0-.8-.65-1.44-1.44-1.44h0c-13.56,0-14.19,16.35-14.19,24.19v15.57Z"/><path d="m232.6,59.94v30.66c0,1.89-1.53,3.42-3.42,3.42h0c-1.89,0-3.42-1.53-3.42-3.42v-40.14c0-1.89,1.53-3.42,3.42-3.42h0c1.89,0,3.42,1.53,3.42,3.42v.83c0,.6.18,1.18.52,1.68h0c.55.8,1.46,1.27,2.43,1.27h1.21c.93,0,1.69.76,1.69,1.69h0c0,.93-.76,1.69-1.69,1.69h-1.85c-.64,0-1.25.27-1.69.74h0c-.4.43-.62.99-.62,1.57Z"/></svg>